<?xml version="1.0" encoding="UTF-8"?>
<svg viewBox="0 0 231.9 348.66" xmlns="http://www.w3.org/2000/svg">
 <path d="m70.64-0.0549l86.236 1.4739c3.1734 86.011 12.121 168.02 28.08 254.03l-57.85 10.791c-5.5649-76.479-7.6092-248.39-11.625-195.61-4.0159 52.778-10.52 131.82-10.763 194.09l-58.773-10.265c11.711-84.429 19.454-161.78 24.695-254.51z" fill="#003f7f" stroke="#7f7f7f" stroke-width="1.89"/>
 <g fill="none">
  <path d="m80.138 11.79v11.736" stroke="#615f5f" stroke-width="1.058"/>
  <g stroke="#000">
   <path d="m137.87 12.001c4.6159 7.4302 11.825 11.64 20.183 14.424"/>
   <path d="m94.412 11.539c-4.8838 6.8166-12.385 13.172-23.495 14.191"/>
   <path d="m72.023 11.324l85.345 0.5298"/>
  </g>
 </g>
 <path d="m107.32 3.6916v39.018h10.324l-0.5735-38.829-9.7501-0.1894z" fill="#003f7f" fill-rule="evenodd" stroke="#7b7b7e"/>
 <path d="m115.08 7.1909c0.001068 0.68237-0.39942 1.3134-1.0504 1.6548-0.65097 0.34145-1.4534 0.34145-2.1043 0-0.65097-0.34149-1.0515-0.97247-1.0504-1.6548-0.001083-0.6824 0.39944-1.3134 1.0504-1.6548 0.65099-0.34149 1.4534-0.34149 2.1043 0 0.65099 0.34149 1.0515 0.97244 1.0504 1.6548z" fill="none" stroke="#000" stroke-opacity=".519" stroke-width=".529"/>
 <g fill="#fff" fill-rule="evenodd" stroke="#7b7b7e" stroke-width=".43">
  <path d="m128.25 4.0491v7.5709h2.755l-0.153-7.4579-2.6019-0.113z"/>
  <path d="m141.77 4.0491v7.6562h2.755l-0.153-7.5433-2.602-0.113z"/>
  <path d="m91.982 3.5368v7.7416h2.755l-0.153-7.6287-2.602-0.1129z"/>
  <path d="m78.987 3.2807l-0.0917 7.9977h2.755l-0.0614-7.8848-2.602-0.1129h1.5e-5z"/>
 </g>
</svg>
