<svg id="eyjcqnl7hzdi1" xmlns="http://www.w3.org/2000/svg" xmlns:xlink="http://www.w3.org/1999/xlink" viewBox="0 0 512 512" shape-rendering="geometricPrecision" text-rendering="geometricPrecision"><style><![CDATA[#eyjcqnl7hzdi3_to {animation: eyjcqnl7hzdi3_to__to 8000ms linear infinite normal forwards}@keyframes eyjcqnl7hzdi3_to__to { 0% {transform: translate(-120px,0px)} 25% {transform: translate(-30px,0px)} 31.250000% {transform: translate(-60px,0px)} 37.500000% {transform: translate(0px,0px)} 50% {transform: translate(0px,0px)} 75% {transform: translate(-120px,0px)} 100% {transform: translate(-120px,0px)} }#eyjcqnl7hzdi4_to {animation: eyjcqnl7hzdi4_to__to 8000ms linear infinite normal forwards}@keyframes eyjcqnl7hzdi4_to__to { 0% {transform: translate(-120px,0px)} 25% {transform: translate(-30px,0px)} 31.250000% {transform: translate(-60px,0px)} 37.500000% {transform: translate(0px,0px)} 50% {transform: translate(0px,0px)} 75% {transform: translate(-120px,0px)} 100% {transform: translate(-120px,0px)} }#eyjcqnl7hzdi5_to {animation: eyjcqnl7hzdi5_to__to 8000ms linear infinite normal forwards}@keyframes eyjcqnl7hzdi5_to__to { 0% {transform: translate(-120px,0px)} 25% {transform: translate(-30px,0px)} 31.250000% {transform: translate(-60px,0px)} 37.500000% {transform: translate(0px,0px)} 50% {transform: translate(0px,0px)} 75% {transform: translate(-120px,0px)} 100% {transform: translate(-120px,0px)} }]]></style><g id="eyjcqnl7hzdi2"><g id="eyjcqnl7hzdi3_to" transform="translate(-120,0)"><path id="eyjcqnl7hzdi3" d="M208,336L-15.482532,336C-24.314532,336,-31.482532,343.168000,-31.482532,352C-31.482532,360.832000,-24.314532,368,-15.482532,368L208,368C216.832000,368,224,375.200000,224,384C224,392.800000,216.832000,400,208,400C199.168000,400,192,407.168000,192,416C192,424.832000,199.168000,432,208,432C234.464000,432,256,410.464000,256,384C256,357.536000,234.464000,336,208,336Z" transform="translate(0,0)" fill="rgb(0,168,255)" stroke="none" stroke-width="1"/></g><g id="eyjcqnl7hzdi4_to" transform="translate(-120,0)"><path id="eyjcqnl7hzdi4" d="M-15.482532,176L304,176C330.464000,176,352,154.464000,352,128C352,101.536000,330.464000,80,304,80C295.168000,80,288,87.168000,288,96C288,104.832000,295.168000,112,304,112C312.832000,112,320,119.200000,320,128C320,136.800000,312.832000,144,304,144L-15.482532,144C-24.314532,144,-31.482532,151.168000,-31.482532,160C-31.482532,168.832000,-24.314532,176,-15.482532,176Z" transform="translate(0,0)" fill="rgb(0,168,255)" stroke="none" stroke-width="1"/></g><g id="eyjcqnl7hzdi5_to" transform="translate(-120,0)"><path id="eyjcqnl7hzdi5" d="M432,112C423.168000,112,416,119.168000,416,128C416,136.832000,423.168000,144,432,144C458.464000,144,480,165.536000,480,192C480,218.464000,458.464000,240,432,240L-15.482532,240C-24.314532,240,-31.482532,247.168000,-31.482532,256C-31.482532,264.832000,-24.314532,272,-15.482532,272L432,272C476.096000,272,512,236.128000,512,192C512,147.872000,476.096000,112,432,112Z" transform="translate(0,0)" fill="rgb(0,168,255)" stroke="none" stroke-width="1"/></g></g></svg>